<svg data-v-fde0c5aa="" xmlns="http://www.w3.org/2000/svg" viewBox="0 0 300 300" class="iconAbove"><!----><defs data-v-fde0c5aa=""><!----></defs><rect data-v-fde0c5aa="" fill="#400B2C" x="0" y="0" width="300px" height="300px" class="logo-background-square"></rect><defs data-v-fde0c5aa=""><!----></defs><g data-v-fde0c5aa="" id="db374d6b-5110-4906-b29c-b6ca81dbb980" fill="#E8E8EE" transform="matrix(2.177736840013276,0,0,2.177736840013276,20.326660538982342,167.42902045417745)"><path d="M-0.15 14L3.12 14L3.12 13.37L2.06 13.19C2.06 13.19 2.16 12.57 2.41 11.83L2.63 11.16L6.27 11.16L7 13.24L6.24 13.37L6.24 14L9.65 14L9.65 13.37L8.85 13.23L5.64 4.10L4.05 4.19L0.78 13.19L-0.15 13.37ZM2.97 10.26L4.21 6.69C4.38 6.23 4.44 5.82 4.44 5.82L4.49 5.82C4.49 5.82 4.58 6.22 4.72 6.64L5.96 10.26ZM10.30 14L13.36 14L13.36 13.37L12.46 13.13L12.46 7.06C12.46 6.51 12.36 5.89 12.36 5.89L12.40 5.89C12.40 5.89 12.54 6.38 12.82 6.94L15.68 12.60L15.95 12.60L18.65 7.25C19.05 6.44 19.24 5.87 19.24 5.87L19.28 5.87C19.28 5.87 19.19 6.40 19.19 7.43L19.19 13.16L18.40 13.37L18.40 14L21.92 14L21.92 13.37L21.03 13.16L21.03 5.01L21.92 4.83L21.92 4.20L19.31 4.20L16.77 9.21C16.49 9.74 16.31 10.25 16.31 10.25L16.25 10.25C16.25 10.25 16.06 9.72 15.81 9.21L13.37 4.20L10.30 4.20L10.30 4.83L11.42 5.01L11.42 13.13L10.30 13.37ZM26.10 14.20C28.22 14.20 29.68 13.15 29.68 11.34C29.68 9.81 28.78 9.13 27.13 8.25C26.10 7.70 25.38 7.34 25.38 6.27C25.38 5.46 26.17 4.93 27.16 4.93C27.68 4.93 28 5.01 28.24 5.11L28.45 6.94L29.22 6.94L29.33 4.58C29.33 4.58 28.59 4.00 26.88 4.00C24.96 4.00 23.62 5.03 23.62 6.65C23.62 8.18 24.57 8.93 25.94 9.55C27.06 10.05 27.92 10.53 27.92 11.61C27.92 12.54 27.36 13.27 25.89 13.27C25.37 13.27 24.93 13.19 24.61 13.10L24.36 11.16L23.59 11.16L23.60 13.64C23.60 13.64 24.50 14.20 26.10 14.20ZM36.06 14L40.12 14L40.12 13.37L39.07 13.19L39.07 5.08L41.20 5.21L41.29 6.78L42.03 6.78L42.18 4.20L34.01 4.20L34.02 6.78L34.76 6.78L34.99 5.21L37.11 5.08L37.11 13.19L36.06 13.37ZM45.78 14.14C47.42 14.14 48.09 13.57 48.09 13.57L48.09 12.80C48.09 12.80 47.36 12.96 46.52 12.96C44.72 12.96 44.06 11.98 43.99 10.51L48.45 10.51C48.50 8.19 47.39 6.86 45.33 6.86C43.57 6.86 42.10 8.30 42.10 10.63C42.10 12.67 43.40 14.14 45.78 14.14ZM44.02 9.56C44.13 8.39 44.63 7.77 45.36 7.77C45.99 7.77 46.48 8.47 46.48 9.45ZM53.06 14.14C54.50 14.14 55.06 13.57 55.06 13.57L55.06 12.80C55.06 12.80 54.54 12.96 53.79 12.96C52.07 12.96 51.44 11.90 51.44 10.39C51.44 8.71 51.98 7.97 52.89 7.97C53.68 7.97 54.07 8.37 54.84 8.57L55.12 7.07C54.47 7 53.94 6.86 53.09 6.86C51.04 6.86 49.55 8.23 49.55 10.63C49.55 12.67 50.79 14.14 53.06 14.14ZM56 14L59.40 14L59.40 13.37L58.76 13.26L58.76 9.90C58.76 9.14 58.70 8.57 58.70 8.57C58.70 8.57 59.36 8.09 60.14 8.09C60.87 8.09 61.29 8.48 61.29 9.53L61.29 13.26L60.66 13.37L60.66 14L64.05 14L64.05 13.37L63.15 13.26L63.15 9.38C63.15 7.78 62.44 6.86 61.01 6.86C60.05 6.86 59.21 7.18 58.62 7.71L58.76 3.56L58.39 3.30L55.99 3.51L55.99 4.14L56.90 4.24L56.90 13.26L56 13.37ZM64.97 14L68.38 14L68.38 13.37L67.73 13.26L67.73 9.90C67.73 9.14 67.68 8.57 67.68 8.57C67.68 8.57 68.43 8.09 69.13 8.09C69.97 8.09 70.28 8.64 70.28 9.53L70.28 13.26L69.64 13.37L69.64 14L73.04 14L73.04 13.37L72.14 13.26L72.14 9.38C72.14 7.55 71.22 6.86 70 6.86C69.31 6.86 68.39 7.03 67.70 7.63L67.73 7.18L67.37 6.93L64.96 7.14L64.96 7.77L65.87 7.87L65.87 13.26L64.97 13.37ZM77.32 13.20C76.31 13.20 75.84 12.10 75.84 10.49C75.84 8.96 76.12 7.80 77.35 7.80C78.36 7.80 78.83 8.90 78.83 10.51C78.83 12.04 78.55 13.20 77.32 13.20ZM77.15 14.14C79.48 14.14 80.72 12.50 80.72 10.35C80.72 8.27 79.48 6.86 77.52 6.86C75.19 6.86 73.95 8.50 73.95 10.65C73.95 12.73 75.19 14.14 77.15 14.14ZM81.68 14L85.33 14L85.33 13.37L84.43 13.20L84.43 3.60L84.10 3.35L81.66 3.54L81.66 4.17L82.57 4.27L82.57 13.20L81.68 13.37ZM89.68 13.20C88.68 13.20 88.20 12.10 88.20 10.49C88.20 8.96 88.48 7.80 89.71 7.80C90.72 7.80 91.20 8.90 91.20 10.51C91.20 12.04 90.92 13.20 89.68 13.20ZM89.52 14.14C91.84 14.14 93.09 12.50 93.09 10.35C93.09 8.27 91.84 6.86 89.88 6.86C87.56 6.86 86.31 8.50 86.31 10.65C86.31 12.73 87.56 14.14 89.52 14.14ZM97.51 17.64C99.58 17.61 100.81 16.62 100.81 14.94C100.81 13.76 100.17 12.87 98.60 12.75L96.94 12.66C96.35 12.63 96.25 12.25 96.40 11.89C96.66 11.93 96.91 11.96 97.19 11.96C99.48 11.96 100.39 10.74 100.39 9.30C100.39 8.93 100.31 8.44 100.09 8.16L100.09 8.11L101.26 8.12L101.30 6.97L99.01 7.14C98.49 6.93 98.03 6.86 97.44 6.86C95.52 6.86 94.30 7.85 94.30 9.52C94.30 10.60 94.88 11.34 95.75 11.70C95.68 11.75 94.96 12.10 94.96 12.84C94.96 13.57 95.42 13.79 95.42 13.79C95.42 13.79 94.09 14.06 94.09 15.46C94.09 17.08 95.93 17.67 97.51 17.64ZM97.66 16.72C96.05 16.72 95.69 15.83 95.69 15.02C95.69 14.46 95.87 14.07 95.87 14.07C96.12 14.17 96.43 14.28 96.88 14.31L98.41 14.39C99.26 14.43 99.62 14.74 99.62 15.30C99.62 16.27 98.73 16.72 97.66 16.72ZM97.43 11.02C96.50 11.02 96.15 10.30 96.15 9.25C96.15 8.40 96.52 7.80 97.27 7.80C98.14 7.80 98.55 8.48 98.55 9.49C98.55 10.33 98.14 11.02 97.43 11.02ZM102.12 14L105.77 14L105.77 13.37L104.87 13.20L104.87 7.18L104.54 6.93L102.10 7.13L102.10 7.76L103.01 7.87L103.01 13.20L102.12 13.37ZM103.89 5.71C104.57 5.71 105 5.32 105 4.63C105 4.02 104.62 3.64 103.99 3.64C103.36 3.64 102.87 4.02 102.87 4.68C102.87 5.31 103.31 5.71 103.89 5.71ZM110.40 14.14C112.04 14.14 112.71 13.57 112.71 13.57L112.71 12.80C112.71 12.80 111.99 12.96 111.15 12.96C109.34 12.96 108.68 11.98 108.61 10.51L113.08 10.51C113.12 8.19 112.01 6.86 109.96 6.86C108.19 6.86 106.72 8.30 106.72 10.63C106.72 12.67 108.02 14.14 110.40 14.14ZM108.64 9.56C108.75 8.39 109.26 7.77 109.98 7.77C110.61 7.77 111.10 8.47 111.10 9.45ZM116.80 14.14C118.26 14.14 119.24 13.51 119.24 11.98C119.24 9.95 115.98 9.72 115.98 8.53C115.98 8.16 116.17 7.94 116.68 7.94C117.43 7.94 117.92 8.29 118.85 8.57L119.13 7.07C118.31 6.97 117.66 6.86 116.82 6.86C115.12 6.86 114.32 7.64 114.32 8.89C114.32 11.00 117.60 11.21 117.60 12.50C117.60 12.80 117.40 13.05 116.87 13.05C116.05 13.05 115.12 12.68 114.37 12.43L114.09 13.93C114.81 14.01 115.68 14.14 116.80 14.14Z"></path></g><defs data-v-fde0c5aa=""><!----></defs><g data-v-fde0c5aa="" id="27520168-eae0-48c3-a3f2-68f1eaaf5b4f" stroke="none" fill="#E8E8EE" transform="matrix(3.333806975129974,0,0,3.333806975129974,96.65908839792041,72.04353647554177)"><path d="M16 19.586l7.496-12.954H8.504zM7.496 12.414L0 25.368h14.992zM24.504 12.414l-7.496 12.954H32z"></path></g><!----></svg>